<mxfile host="Electron" modified="2023-10-05T06:36:41.337Z" agent="Mozilla/5.0 (Windows NT 10.0; Win64; x64) AppleWebKit/537.36 (KHTML, like Gecko) draw.io/22.0.2 Chrome/114.0.5735.289 Electron/25.8.4 Safari/537.36" etag="AYYMS0xKSURJfNYnF1gk" version="22.0.2" type="device">
  <diagram name="Page-1" id="plBdEhP5Hm0ZhWRDxCT0">
    <mxGraphModel dx="1050" dy="621" grid="1" gridSize="10" guides="1" tooltips="1" connect="1" arrows="1" fold="1" page="1" pageScale="1" pageWidth="827" pageHeight="1169" math="0" shadow="0">
      <root>
        <mxCell id="0" />
        <mxCell id="1" parent="0" />
        <mxCell id="Mx5k9zYhxCjhtXxnN2RK-1" value="Planning" style="rounded=0;whiteSpace=wrap;html=1;fillColor=#91ADC6;fontColor=#FFFFFF;strokeColor=none;fontSize=14;fontStyle=0;shadow=1;" vertex="1" parent="1">
          <mxGeometry x="80" y="120" width="120" height="40" as="geometry" />
        </mxCell>
        <mxCell id="Mx5k9zYhxCjhtXxnN2RK-2" value="Analysis" style="rounded=0;whiteSpace=wrap;html=1;fillColor=#91ADC6;fontColor=#FFFFFF;strokeColor=none;fontSize=14;fontStyle=0;shadow=1;" vertex="1" parent="1">
          <mxGeometry x="80" y="180" width="120" height="40" as="geometry" />
        </mxCell>
        <mxCell id="Mx5k9zYhxCjhtXxnN2RK-3" value="Design" style="rounded=0;whiteSpace=wrap;html=1;fillColor=#91ADC6;fontColor=#FFFFFF;strokeColor=none;fontSize=14;fontStyle=0;shadow=1;" vertex="1" parent="1">
          <mxGeometry x="80" y="240" width="120" height="40" as="geometry" />
        </mxCell>
        <mxCell id="Mx5k9zYhxCjhtXxnN2RK-4" value="Implementation" style="rounded=0;whiteSpace=wrap;html=1;fillColor=#91ADC6;fontColor=#FFFFFF;strokeColor=none;fontSize=14;fontStyle=0;shadow=1;" vertex="1" parent="1">
          <mxGeometry x="80" y="300" width="120" height="40" as="geometry" />
        </mxCell>
        <mxCell id="Mx5k9zYhxCjhtXxnN2RK-5" value="System" style="rounded=0;whiteSpace=wrap;html=1;fillColor=#F9D230;fontColor=#FFFFFF;strokeColor=none;fontSize=14;fontStyle=0;shadow=1;" vertex="1" parent="1">
          <mxGeometry x="80" y="360" width="120" height="40" as="geometry" />
        </mxCell>
        <mxCell id="Mx5k9zYhxCjhtXxnN2RK-6" value="" style="endArrow=open;html=1;rounded=0;exitX=0.5;exitY=1;exitDx=0;exitDy=0;entryX=0.5;entryY=0;entryDx=0;entryDy=0;strokeColor=#808080;endFill=0;" edge="1" parent="1" source="Mx5k9zYhxCjhtXxnN2RK-1" target="Mx5k9zYhxCjhtXxnN2RK-2">
          <mxGeometry width="50" height="50" relative="1" as="geometry">
            <mxPoint x="390" y="250" as="sourcePoint" />
            <mxPoint x="440" y="200" as="targetPoint" />
          </mxGeometry>
        </mxCell>
        <mxCell id="Mx5k9zYhxCjhtXxnN2RK-7" value="" style="endArrow=open;html=1;rounded=0;exitX=0.5;exitY=1;exitDx=0;exitDy=0;entryX=0.5;entryY=0;entryDx=0;entryDy=0;strokeColor=#808080;endFill=0;" edge="1" parent="1">
          <mxGeometry width="50" height="50" relative="1" as="geometry">
            <mxPoint x="139.83" y="220" as="sourcePoint" />
            <mxPoint x="139.83" y="240" as="targetPoint" />
          </mxGeometry>
        </mxCell>
        <mxCell id="Mx5k9zYhxCjhtXxnN2RK-8" value="" style="endArrow=open;html=1;rounded=0;exitX=0.5;exitY=1;exitDx=0;exitDy=0;entryX=0.5;entryY=0;entryDx=0;entryDy=0;strokeColor=#808080;endFill=0;" edge="1" parent="1">
          <mxGeometry width="50" height="50" relative="1" as="geometry">
            <mxPoint x="139.83" y="280" as="sourcePoint" />
            <mxPoint x="139.83" y="300" as="targetPoint" />
          </mxGeometry>
        </mxCell>
        <mxCell id="Mx5k9zYhxCjhtXxnN2RK-9" value="" style="endArrow=open;html=1;rounded=0;exitX=0.5;exitY=1;exitDx=0;exitDy=0;entryX=0.5;entryY=0;entryDx=0;entryDy=0;strokeColor=#808080;endFill=0;" edge="1" parent="1">
          <mxGeometry width="50" height="50" relative="1" as="geometry">
            <mxPoint x="139.83" y="340" as="sourcePoint" />
            <mxPoint x="139.83" y="360" as="targetPoint" />
          </mxGeometry>
        </mxCell>
        <mxCell id="Mx5k9zYhxCjhtXxnN2RK-10" value="Planning" style="rounded=0;whiteSpace=wrap;html=1;fillColor=#91ADC6;fontColor=#FFFFFF;strokeColor=none;fontSize=14;fontStyle=0;shadow=1;" vertex="1" parent="1">
          <mxGeometry x="280" y="120" width="120" height="40" as="geometry" />
        </mxCell>
        <mxCell id="Mx5k9zYhxCjhtXxnN2RK-11" value="Analysis" style="rounded=0;whiteSpace=wrap;html=1;fillColor=#91ADC6;fontColor=#FFFFFF;strokeColor=none;fontSize=14;fontStyle=0;shadow=1;" vertex="1" parent="1">
          <mxGeometry x="280" y="200" width="120" height="40" as="geometry" />
        </mxCell>
        <mxCell id="Mx5k9zYhxCjhtXxnN2RK-12" value="Design" style="rounded=0;whiteSpace=wrap;html=1;fillColor=#91ADC6;fontColor=#FFFFFF;strokeColor=none;fontSize=14;fontStyle=0;shadow=1;" vertex="1" parent="1">
          <mxGeometry x="280" y="240" width="120" height="40" as="geometry" />
        </mxCell>
        <mxCell id="Mx5k9zYhxCjhtXxnN2RK-13" value="Implementation" style="rounded=0;whiteSpace=wrap;html=1;fillColor=#91ADC6;fontColor=#FFFFFF;strokeColor=none;fontSize=14;fontStyle=0;shadow=1;" vertex="1" parent="1">
          <mxGeometry x="280" y="280" width="120" height="40" as="geometry" />
        </mxCell>
        <mxCell id="Mx5k9zYhxCjhtXxnN2RK-14" value="System" style="rounded=0;whiteSpace=wrap;html=1;fillColor=#F9D230;fontColor=#FFFFFF;strokeColor=none;fontSize=14;fontStyle=0;shadow=1;" vertex="1" parent="1">
          <mxGeometry x="560" y="360" width="120" height="40" as="geometry" />
        </mxCell>
        <mxCell id="Mx5k9zYhxCjhtXxnN2RK-15" value="Implementation" style="rounded=0;whiteSpace=wrap;html=1;fillColor=#91ADC6;fontColor=#FFFFFF;strokeColor=none;fontSize=14;fontStyle=0;shadow=1;" vertex="1" parent="1">
          <mxGeometry x="560" y="240" width="120" height="40" as="geometry" />
        </mxCell>
        <mxCell id="Mx5k9zYhxCjhtXxnN2RK-16" value="Prototype" style="rounded=0;whiteSpace=wrap;html=1;fillColor=#FF8000;fontColor=#FFFFFF;strokeColor=none;fontSize=14;fontStyle=0;shadow=1;" vertex="1" parent="1">
          <mxGeometry x="420" y="240" width="120" height="40" as="geometry" />
        </mxCell>
        <mxCell id="Mx5k9zYhxCjhtXxnN2RK-17" value="" style="endArrow=none;html=1;rounded=0;strokeColor=#FFFFFF;exitX=0;exitY=0;exitDx=0;exitDy=0;entryX=1;entryY=0;entryDx=0;entryDy=0;" edge="1" parent="1" source="Mx5k9zYhxCjhtXxnN2RK-12" target="Mx5k9zYhxCjhtXxnN2RK-12">
          <mxGeometry width="50" height="50" relative="1" as="geometry">
            <mxPoint x="315" y="270" as="sourcePoint" />
            <mxPoint x="365" y="220" as="targetPoint" />
          </mxGeometry>
        </mxCell>
        <mxCell id="Mx5k9zYhxCjhtXxnN2RK-18" value="" style="endArrow=none;html=1;rounded=0;strokeColor=#FFFFFF;exitX=0;exitY=0;exitDx=0;exitDy=0;entryX=1;entryY=0;entryDx=0;entryDy=0;" edge="1" parent="1">
          <mxGeometry width="50" height="50" relative="1" as="geometry">
            <mxPoint x="280" y="280" as="sourcePoint" />
            <mxPoint x="400" y="280" as="targetPoint" />
          </mxGeometry>
        </mxCell>
        <mxCell id="Mx5k9zYhxCjhtXxnN2RK-19" value="" style="endArrow=open;html=1;rounded=0;exitX=0.5;exitY=1;exitDx=0;exitDy=0;entryX=0.5;entryY=0;entryDx=0;entryDy=0;strokeColor=#808080;endFill=0;" edge="1" parent="1" target="Mx5k9zYhxCjhtXxnN2RK-11">
          <mxGeometry width="50" height="50" relative="1" as="geometry">
            <mxPoint x="339.83" y="160" as="sourcePoint" />
            <mxPoint x="339.83" y="180" as="targetPoint" />
          </mxGeometry>
        </mxCell>
        <mxCell id="Mx5k9zYhxCjhtXxnN2RK-20" value="" style="endArrow=open;html=1;rounded=0;exitX=0.5;exitY=1;exitDx=0;exitDy=0;entryX=0.5;entryY=1;entryDx=0;entryDy=0;strokeColor=#808080;endFill=0;" edge="1" parent="1" target="Mx5k9zYhxCjhtXxnN2RK-13">
          <mxGeometry width="50" height="50" relative="1" as="geometry">
            <mxPoint x="479.86" y="280" as="sourcePoint" />
            <mxPoint x="479.86" y="300" as="targetPoint" />
            <Array as="points">
              <mxPoint x="480" y="350" />
              <mxPoint x="340" y="350" />
            </Array>
          </mxGeometry>
        </mxCell>
        <mxCell id="Mx5k9zYhxCjhtXxnN2RK-22" value="" style="endArrow=open;html=1;rounded=0;exitX=0.5;exitY=1;exitDx=0;exitDy=0;entryX=0;entryY=0.5;entryDx=0;entryDy=0;strokeColor=#808080;endFill=0;" edge="1" parent="1" target="Mx5k9zYhxCjhtXxnN2RK-16">
          <mxGeometry width="50" height="50" relative="1" as="geometry">
            <mxPoint x="400" y="260" as="sourcePoint" />
            <mxPoint x="400" y="280" as="targetPoint" />
          </mxGeometry>
        </mxCell>
        <mxCell id="Mx5k9zYhxCjhtXxnN2RK-23" value="" style="endArrow=open;html=1;rounded=0;exitX=0.5;exitY=1;exitDx=0;exitDy=0;entryX=0;entryY=0.5;entryDx=0;entryDy=0;strokeColor=#808080;endFill=0;" edge="1" parent="1">
          <mxGeometry width="50" height="50" relative="1" as="geometry">
            <mxPoint x="540" y="259.8" as="sourcePoint" />
            <mxPoint x="560" y="259.8" as="targetPoint" />
          </mxGeometry>
        </mxCell>
        <mxCell id="Mx5k9zYhxCjhtXxnN2RK-24" value="" style="endArrow=open;html=1;rounded=0;exitX=0.5;exitY=1;exitDx=0;exitDy=0;strokeColor=#808080;endFill=0;entryX=0.5;entryY=0;entryDx=0;entryDy=0;" edge="1" parent="1" source="Mx5k9zYhxCjhtXxnN2RK-15" target="Mx5k9zYhxCjhtXxnN2RK-14">
          <mxGeometry width="50" height="50" relative="1" as="geometry">
            <mxPoint x="580" y="280" as="sourcePoint" />
            <mxPoint x="620" y="300" as="targetPoint" />
          </mxGeometry>
        </mxCell>
        <mxCell id="Mx5k9zYhxCjhtXxnN2RK-25" value="Waterfall" style="text;html=1;strokeColor=none;fillColor=#CCE5FF;align=center;verticalAlign=middle;whiteSpace=wrap;rounded=1;fontStyle=1;fontSize=16;fontColor=#333333;glass=0;arcSize=50;shadow=1;" vertex="1" parent="1">
          <mxGeometry x="80" y="70" width="120" height="30" as="geometry" />
        </mxCell>
        <mxCell id="Mx5k9zYhxCjhtXxnN2RK-27" value="Agile" style="text;html=1;strokeColor=none;fillColor=#CCE5FF;align=center;verticalAlign=middle;whiteSpace=wrap;rounded=1;fontStyle=1;fontSize=16;fontColor=#333333;glass=0;arcSize=50;shadow=1;" vertex="1" parent="1">
          <mxGeometry x="420" y="70" width="120" height="30" as="geometry" />
        </mxCell>
      </root>
    </mxGraphModel>
  </diagram>
</mxfile>
